{
    "asset" : {
        "copyright" : "GS",
        "generator" : "Khronos glTF Blender I/O v1.4.40",
        "version" : "2.0"
    },
    "scene" : 0,
    "scenes" : [
        {
            "name" : "Scene",
            "nodes" : [
                0
            ]
        }
    ],
    "nodes" : [
        {
            "mesh" : 0,
            "name" : "red_collapse_0.1",
            "rotation" : [
                0,
                0.7071067690849304,
                0.7071068286895752,
                -1.1520231879558196e-07
            ]
        }
    ],
    "materials" : [
        {
            "doubleSided" : true,
            "name" : "Material.001",
            "normalTexture" : {
                "index" : 0,
                "texCoord" : 0
            },
            "pbrMetallicRoughness" : {
                "baseColorTexture" : {
                    "index" : 1,
                    "texCoord" : 0
                },
                "metallicFactor" : 0,
                "roughnessFactor" : 0.23913045227527618
            }
        }
    ],
    "meshes" : [
        {
            "name" : "TexturedMesh__lo_collapsed",
            "primitives" : [
                {
                    "attributes" : {
                        "POSITION" : 0,
                        "NORMAL" : 1,
                        "TEXCOORD_0" : 2
                    },
                    "indices" : 3,
                    "material" : 0
                }
            ]
        }
    ],
    "textures" : [
        {
            "sampler" : 0,
            "source" : 0
        },
        {
            "sampler" : 0,
            "source" : 1
        }
    ],
    "images" : [
        {
            "mimeType" : "image/png",
            "name" : "stein_normal",
            "uri" : "Tex/stein_normal.png"
        },
        {
            "mimeType" : "image/png",
            "name" : "color",
            "uri" : "Tex/color.png"
        }
    ],
    "accessors" : [
        {
            "bufferView" : 0,
            "componentType" : 5126,
            "count" : 8544,
            "max" : [
                1.6104449033737183,
                1.0337319374084473,
                -1.4572269916534424
            ],
            "min" : [
                -0.166061133146286,
                -0.5988163352012634,
                -1.7397843599319458
            ],
            "type" : "VEC3"
        },
        {
            "bufferView" : 1,
            "componentType" : 5126,
            "count" : 8544,
            "type" : "VEC3"
        },
        {
            "bufferView" : 2,
            "componentType" : 5126,
            "count" : 8544,
            "type" : "VEC2"
        },
        {
            "bufferView" : 3,
            "componentType" : 5123,
            "count" : 47190,
            "type" : "SCALAR"
        }
    ],
    "bufferViews" : [
        {
            "buffer" : 0,
            "byteLength" : 102528,
            "byteOffset" : 0
        },
        {
            "buffer" : 0,
            "byteLength" : 102528,
            "byteOffset" : 102528
        },
        {
            "buffer" : 0,
            "byteLength" : 68352,
            "byteOffset" : 205056
        },
        {
            "buffer" : 0,
            "byteLength" : 94380,
            "byteOffset" : 273408
        }
    ],
    "samplers" : [
        {
            "magFilter" : 9729,
            "minFilter" : 9986
        }
    ],
    "buffers" : [
        {
            "byteLength" : 367788,
            "uri" : "stein_red1.bin"
        }
    ]
}
